<svg xmlns="http://www.w3.org/2000/svg" id="Camada_2" data-name="Camada 2" viewBox="0 0 678.6 678.61"><defs><style>.cls-1{fill:#000533}</style></defs><g id="Franqueado"><g id="logo_on" data-name="logo on"><path d="M209.89 227.69c-51.46 0-107.01 42.56-107.01 111.31 0 32 12.18 61.16 34.3 82.11 20.01 18.94 46.52 29.81 72.71 29.81s52.93-10.87 72.98-29.81c22.15-20.93 34.35-50.09 34.35-82.11 0-68.75-55.71-111.31-107.33-111.31Zm0 216.94c-18.33 0-36.85-10.11-50.79-27.73-11.04-13.95-24.2-38.84-24.2-78.21 0-30.19 8.59-57.58 24.19-77.13 13.99-17.53 32.51-27.58 50.8-27.58 37.02 0 75.3 38.37 75.3 102.57s-39.09 108.08-75.3 108.08Zm241.08-193.54c-12.41-13.3-30.08-20.33-51.11-20.33h-74.54v217.09h27.12v-87.02h47.42c21.03 0 38.7-7.03 51.11-20.33 11-11.8 17.07-27.68 17.07-44.71s-6.07-32.9-17.07-44.7Zm-24.16 85.79c-4.58 8.34-12.97 18.28-26.95 18.28h-47.42V236.43h47.42c24.84 0 36.15 30.77 36.15 59.36 0 15.68-3.27 30.27-9.2 41.09Z" class="cls-1"/><path d="M443.68 230.76h148.81L490.77 447.85H460.2L571.39 236.5l-100.5 2.9 6.12 26.01h-3.67c-8.37-25.27-29.66-34.65-29.66-34.65Z" class="cls-1"/><path d="M657.94 94.14c-6.55-37.52-35.96-66.93-73.48-73.48C508.03 7.29 425.45 0 339.3 0S170.57 7.29 94.14 20.66c-37.52 6.55-66.93 35.96-73.48 73.48C7.29 170.57 0 253.15 0 339.3s7.29 168.73 20.66 245.17c6.55 37.52 35.96 66.92 73.48 73.48 76.43 13.36 159.01 20.66 245.16 20.66s168.73-7.3 245.16-20.66c37.52-6.56 66.93-35.96 73.48-73.48 13.36-76.44 20.66-159.02 20.66-245.17s-7.29-168.73-20.66-245.16Zm-25.41 470.78c-6.03 34.52-33.09 61.59-67.62 67.62-70.34 12.3-146.33 19.01-225.61 19.01s-155.27-6.71-225.61-19.01c-34.53-6.03-61.59-33.1-67.62-67.62-12.3-70.34-19.01-146.34-19.01-225.62s6.71-155.27 19.01-225.61c6.03-34.53 33.09-61.59 67.62-67.62 70.34-12.3 146.33-19.01 225.61-19.01s155.27 6.71 225.61 19.01c34.53 6.03 61.59 33.09 67.62 67.62 12.3 70.34 19.01 146.33 19.01 225.61s-6.71 155.28-19.01 225.62Z" class="cls-1"/><path d="M209.89 227.69c-51.46 0-107.01 42.56-107.01 111.31 0 32 12.18 61.16 34.3 82.11 20.01 18.94 46.52 29.81 72.71 29.81s52.93-10.87 72.98-29.81c22.15-20.93 34.35-50.09 34.35-82.11 0-68.75-55.71-111.31-107.33-111.31Zm0 216.94c-18.33 0-36.85-10.11-50.79-27.73-11.04-13.95-24.2-38.84-24.2-78.21 0-30.19 8.59-57.58 24.19-77.13 13.99-17.53 32.51-27.58 50.8-27.58 37.02 0 75.3 38.37 75.3 102.57s-39.09 108.08-75.3 108.08Zm241.08-193.54c-12.41-13.3-30.08-20.33-51.11-20.33h-74.54v217.09h27.12v-87.02h47.42c21.03 0 38.7-7.03 51.11-20.33 11-11.8 17.07-27.68 17.07-44.71s-6.07-32.9-17.07-44.7Zm-24.16 85.79c-4.58 8.34-12.97 18.28-26.95 18.28h-47.42V236.43h47.42c24.84 0 36.15 30.77 36.15 59.36 0 15.68-3.27 30.27-9.2 41.09Z" class="cls-1"/><path d="M592.49 230.76 490.77 447.85H460.2L571.39 236.5l-100.5 2.9 6.12 26.01h-3.67c-8.37-25.27-29.66-34.65-29.66-34.65h148.81Z" class="cls-1"/></g></g></svg>